<?xml version="1.0" encoding="utf-8"?>
<!-- Generator: Adobe Illustrator 27.8.1, SVG Export Plug-In . SVG Version: 6.00 Build 0)  -->
<svg version="1.1" id="Capa_1" xmlns="http://www.w3.org/2000/svg" xmlns:xlink="http://www.w3.org/1999/xlink" x="0px" y="0px"
	 viewBox="0 0 15 25" style="enable-background:new 0 0 15 25;" xml:space="preserve">
<style type="text/css">
	.st0{fill:#007bff;}
</style>
<path class="st0" d="M1,0c0.2,0,0.3,0.1,0.5,0.2l13,11.8c0.1,0.1,0.2,0.3,0.2,0.5c0,0.2-0.1,0.3-0.2,0.5l-13,11.8
	C1.4,24.9,1.2,25,1,25s-0.3-0.1-0.5-0.2c-0.1-0.1-0.2-0.3-0.2-0.5c0-0.2,0.1-0.3,0.2-0.5l12.5-11.4l0,0L0.5,1.1
	C0.4,1,0.4,0.8,0.4,0.7c0-0.2,0.1-0.3,0.2-0.5C0.7,0.1,0.8,0,1,0z"/>
</svg>
