<svg width="30" height="30" viewBox="0 0 30 30" fill="none" xmlns="http://www.w3.org/2000/svg">
<path d="M14.246 0.766673C14.246 0.342821 14.5831 0 15 0C15.4168 0 15.7478 0.342821 15.754 0.76044V13.8437L19.389 10.1475C19.6833 9.84832 20.1553 9.84832 20.4495 10.1475C20.7437 10.4467 20.7437 10.9267 20.4495 11.2258L15.5333 16.2248C15.3862 16.3744 15.1961 16.4492 15 16.4492C14.8038 16.4492 14.6138 16.3744 14.4667 16.2248L9.55045 11.2258C9.25621 10.9267 9.25621 10.4467 9.55045 10.1475C9.84469 9.84832 10.3167 9.84832 10.6109 10.1475L14.246 13.8437V0.766673Z" fill="#0085FF"/>
<path fill-rule="evenodd" clip-rule="evenodd" d="M0 26.7276V21.4793C0 19.6717 1.44667 18.2069 3.21823 18.2069H9.71598C10.378 18.2069 10.9297 18.7181 10.9971 19.3912C11.2056 21.4856 12.9281 23.0625 15 23.0625C17.0719 23.0625 18.7944 21.4856 19.0029 19.3912C19.0703 18.7181 19.622 18.2069 20.284 18.2069H26.7818C28.5595 18.2069 30 19.678 30 21.4793V26.7276C30 28.5352 28.5533 30 26.7818 30H3.21823C1.44054 30 0 28.529 0 26.7276ZM20.474 19.7341C20.1063 22.514 17.783 24.5897 15 24.5897C12.217 24.5897 9.89375 22.514 9.52595 19.7341H3.21823C2.26808 19.7341 1.50184 20.5194 1.50184 21.4793V26.7276C1.50184 27.6937 2.27421 28.4729 3.21823 28.4729H26.7818C27.7319 28.4729 28.4982 27.6875 28.4982 26.7276V21.4793C28.4982 20.5132 27.7258 19.7341 26.7818 19.7341H20.474Z" fill="#0085FF"/>
</svg>
