<svg width="32" height="32" viewBox="0 0 32 32" fill="none" xmlns="http://www.w3.org/2000/svg">
<path d="M19.0772 13.7781C18.8524 13.7781 18.6345 13.6938 18.4659 13.5252C18.1286 13.1879 18.1286 12.6468 18.4659 12.3095L28.2124 2.56997H22.5978C22.1199 2.56997 21.7335 2.18348 21.7335 1.70564C21.7335 1.2278 22.1199 0.841309 22.5978 0.841309H30.2925C30.7703 0.841309 31.1568 1.2278 31.1568 1.70564V9.39326C31.1568 9.8711 30.7703 10.2576 30.2925 10.2576C29.8146 10.2576 29.4281 9.8711 29.4281 9.39326V3.77862L19.6886 13.5252C19.5199 13.6938 19.3021 13.7781 19.0772 13.7781Z" fill="#0085FF"/>
<path d="M13.7825 12.9184C13.7825 13.1432 13.6982 13.3611 13.5296 13.5297C13.1923 13.867 12.6512 13.867 12.3139 13.5297L2.57436 3.78317L2.57436 9.39781C2.57436 9.87566 2.18787 10.2621 1.71003 10.2621C1.23219 10.2621 0.845703 9.87566 0.845703 9.39781L0.845703 1.70315C0.845703 1.22531 1.23219 0.838823 1.71003 0.838823L9.39765 0.838823C9.87549 0.838823 10.262 1.22531 10.262 1.70315C10.262 2.181 9.87549 2.56748 9.39765 2.56748L3.78302 2.56748L13.5296 12.307C13.6982 12.4757 13.7825 12.6935 13.7825 12.9184Z" fill="#0085FF"/>
<path d="M18.2116 19.0787C18.2116 18.8538 18.2959 18.636 18.4646 18.4673C18.8019 18.13 19.343 18.13 19.6803 18.4673L29.4198 28.2139L29.4198 22.5993C29.4198 22.1214 29.8063 21.7349 30.2841 21.7349C30.7619 21.7349 31.1484 22.1214 31.1484 22.5993L31.1484 30.2939C31.1484 30.7718 30.7619 31.1582 30.2841 31.1582L22.5965 31.1582C22.1186 31.1582 21.7322 30.7718 21.7322 30.2939C21.7322 29.8161 22.1186 29.4296 22.5965 29.4296L28.2111 29.4296L18.4646 19.69C18.2959 19.5214 18.2116 19.3036 18.2116 19.0787Z" fill="#0085FF"/>
<path d="M12.9208 18.215C13.1457 18.215 13.3635 18.2993 13.5322 18.468C13.8695 18.8053 13.8695 19.3464 13.5322 19.6837L3.78561 29.4232L9.40026 29.4232C9.8781 29.4232 10.2646 29.8097 10.2646 30.2875C10.2646 30.7654 9.8781 31.1519 9.40026 31.1519L1.7056 31.1519C1.22775 31.1519 0.841265 30.7654 0.841265 30.2875L0.841265 22.5999C0.841266 22.1221 1.22776 21.7356 1.7056 21.7356C2.18344 21.7356 2.56993 22.1221 2.56993 22.5999L2.56993 28.2145L12.3095 18.468C12.4781 18.2993 12.696 18.215 12.9208 18.215Z" fill="#0085FF"/>
</svg>
